<svg viewBox="0 0 474 104" fill="none"
    xmlns="http://www.w3.org/2000/svg">
    <path d="M13.7393 76.3241L3.41309 86.6338C2.15269 87.8921 0 86.9995 0 85.2184V59.488C0 57.7067 2.15331 56.8141 3.41352 58.0731L13.7393 68.3887C14.262 68.9093 14.6767 69.5277 14.9597 70.2086C15.2427 70.8894 15.3883 71.6193 15.3883 72.3564C15.3883 73.0935 15.2427 73.8234 14.9597 74.5042C14.6767 75.1851 14.262 75.8035 13.7393 76.3241Z" fill="#6366F1"/>
    <path d="M91.3683 76.3241L101.694 86.6337C102.955 87.8921 105.108 86.9995 105.108 85.2184V59.488C105.108 57.7067 102.954 56.8141 101.694 58.0731L91.3683 68.3887C90.8456 68.9093 90.4309 69.5277 90.1479 70.2086C89.8649 70.8894 89.7192 71.6193 89.7192 72.3564C89.7192 73.0935 89.8649 73.8234 90.1479 74.5042C90.4309 75.1851 90.8456 75.8035 91.3683 76.3241Z" fill="#6366F1"/>
    <path d="M49.7091 54.6385L6.82642 11.8167C4.30574 9.29962 0 11.0849 0 14.6471V33.0139C0 34.076 0.422407 35.0945 1.1741 35.8449L44.8945 79.4874C46.9238 81.5064 49.6719 82.6402 52.5368 82.6402C55.4017 82.6402 58.1498 81.5064 60.1791 79.4874L103.932 35.8536C104.685 35.1031 105.108 34.084 105.108 33.0213V14.6545C105.108 11.0924 100.802 9.30703 98.2813 11.8238L55.3984 54.6385C54.6437 55.3912 53.6205 55.814 52.5538 55.814C51.487 55.814 50.4638 55.3912 49.7091 54.6385Z" fill="#6366F1"/>
    <path d="M147.48 77.12C143.64 77.12 140.253 76.2667 137.32 74.56C134.387 72.8 132.093 70.3733 130.44 67.28C128.787 64.1867 127.96 60.5867 127.96 56.48C127.96 52.32 128.76 48.6667 130.36 45.52C132.013 42.3733 134.307 39.92 137.24 38.16C140.227 36.4 143.667 35.52 147.56 35.52C151.4 35.52 154.707 36.4 157.48 38.16C160.253 39.8667 162.387 42.16 163.88 45.04C165.427 47.92 166.2 51.0933 166.2 54.56C166.2 55.0933 166.2 55.68 166.2 56.32C166.2 56.9067 166.173 57.5733 166.12 58.32H136.28C136.547 62 137.747 64.8 139.88 66.72C142.013 68.5867 144.52 69.52 147.4 69.52C149.907 69.52 151.88 69.0133 153.32 68C154.813 66.9333 155.907 65.4933 156.6 63.68H165.16C164.2 67.4667 162.2 70.6667 159.16 73.28C156.12 75.84 152.227 77.12 147.48 77.12ZM147.48 42.88C144.867 42.88 142.547 43.68 140.52 45.28C138.493 46.8267 137.187 49.0133 136.6 51.84H157.72C157.507 49.1733 156.467 47.0133 154.6 45.36C152.733 43.7067 150.36 42.88 147.48 42.88Z" fill="#4B5563"/>
    <path d="M177.129 76.16V68.8H186.809V46.48C186.809 44.72 185.955 43.84 184.249 43.84H177.929V36.48H187.449C189.635 36.48 191.422 37.12 192.809 38.4C194.195 39.6267 194.889 41.36 194.889 43.6V44.56H195.289C195.875 41.5733 197.129 39.3333 199.049 37.84C201.022 36.2933 203.875 35.52 207.609 35.52H213.769V44.48H205.129C201.982 44.48 199.555 45.5733 197.849 47.76C196.142 49.9467 195.289 52.56 195.289 55.6V68.8H207.609V76.16H177.129Z" fill="#4B5563"/>
    <path d="M239.338 77.12C236.191 77.12 233.551 76.5867 231.418 75.52C229.284 74.4 227.684 72.9333 226.618 71.12C225.551 69.2533 225.018 67.2267 225.018 65.04C225.018 61.1467 226.431 58.1067 229.258 55.92C232.138 53.7333 236.191 52.64 241.418 52.64H251.658V51.76C251.658 45.7867 248.884 42.8 243.338 42.8C241.044 42.8 239.098 43.3067 237.498 44.32C235.951 45.28 234.911 46.8533 234.378 49.04H225.898C226.324 44.88 228.111 41.6 231.258 39.2C234.458 36.7467 238.484 35.52 243.338 35.52C249.204 35.52 253.471 36.96 256.138 39.84C258.804 42.72 260.138 46.6933 260.138 51.76V76.16H252.938L252.218 70.32H251.658C250.484 72.1867 249.018 73.7867 247.258 75.12C245.498 76.4533 242.858 77.12 239.338 77.12ZM240.938 70C244.404 70 246.991 68.96 248.698 66.88C250.458 64.7467 251.418 62.0533 251.578 58.8H242.298C239.258 58.8 237.098 59.3067 235.818 60.32C234.591 61.28 233.978 62.64 233.978 64.4C233.978 66.16 234.591 67.5467 235.818 68.56C237.098 69.52 238.804 70 240.938 70Z" fill="#4B5563"/>
    <path d="M274.746 76.16V18.56H283.226V53.12L298.426 36.48H309.066L292.506 54.08V54.72L311.226 76.16H300.906L283.226 55.76V76.16H274.746Z" fill="#4B5563"/>
    <path d="M338.075 30.4C336.208 30.4 334.635 29.8133 333.355 28.64C332.128 27.4133 331.515 25.92 331.515 24.16C331.515 22.4 332.128 20.9333 333.355 19.76C334.635 18.5867 336.208 18 338.075 18C339.995 18 341.568 18.5867 342.795 19.76C344.075 20.9333 344.715 22.4 344.715 24.16C344.715 25.92 344.075 27.4133 342.795 28.64C341.568 29.8133 339.995 30.4 338.075 30.4ZM322.155 76.16V68.8H334.635V46.48C334.635 44.72 333.782 43.84 332.075 43.84H323.275V36.48H333.595C336.902 36.48 339.302 37.2533 340.795 38.8C342.342 40.2933 343.115 42.6933 343.115 46V68.8H355.595V76.16H322.155Z" fill="#4B5563"/>
    <path d="M383.324 77.12C378.524 77.12 374.87 75.6533 372.364 72.72C369.91 69.7333 368.684 65.4133 368.684 59.76V36.48H377.164V58.72C377.164 61.9733 377.857 64.5333 379.244 66.4C380.684 68.2133 382.87 69.12 385.804 69.12C388.737 69.12 391.19 68.1333 393.164 66.16C395.137 64.1867 396.124 61.3333 396.124 57.6V36.48H404.604V76.16H397.244L396.524 70.24H396.124C395.057 72.16 393.404 73.7867 391.164 75.12C388.924 76.4533 386.31 77.12 383.324 77.12Z" fill="#4B5563"/>
    <path d="M434.012 30.4C432.146 30.4 430.572 29.8133 429.292 28.64C428.066 27.4133 427.452 25.92 427.452 24.16C427.452 22.4 428.066 20.9333 429.292 19.76C430.572 18.5867 432.146 18 434.012 18C435.933 18 437.506 18.5867 438.732 19.76C440.012 20.9333 440.653 22.4 440.653 24.16C440.653 25.92 440.012 27.4133 438.732 28.64C437.506 29.8133 435.933 30.4 434.012 30.4ZM418.093 76.16V68.8H430.572V46.48C430.572 44.72 429.719 43.84 428.012 43.84H419.213V36.48H429.533C432.839 36.48 435.239 37.2533 436.732 38.8C438.279 40.2933 439.053 42.6933 439.053 46V68.8H451.533V76.16H418.093Z" fill="#4B5563"/>
</svg>